<svg xmlns="http://www.w3.org/2000/svg" width="18.298" height="19.215" viewBox="0 0 18.298 19.215"><defs><style>.a{fill:#00c7c7;}</style></defs><path class="a" d="M13.534,1.848A1.61,1.61,0,0,0,11.988.5a.327.327,0,0,0-.315.337.327.327,0,0,0,.315.337.982.982,0,0,1,.946,1.011A.982.982,0,0,1,11.988,3.2a.338.338,0,0,0,0,.674,1.61,1.61,0,0,0,1.546-1.348h4.133V5.557H.631V2.523H5.994a.338.338,0,0,0,0-.674H5.421a.951.951,0,0,1,.888-.674.982.982,0,0,1,.946,1.011A.982.982,0,0,1,6.31,3.2a.338.338,0,0,0,0,.674A1.636,1.636,0,0,0,7.887,2.186,1.636,1.636,0,0,0,6.31.5,1.61,1.61,0,0,0,4.764,1.848H0V19.715H18.3V1.848Zm4.133,17.193H.631V6.231H17.667Z" transform="translate(0 -0.5)"/><path class="a" d="M25.343,1.186a1.029,1.029,0,1,1,0,2.059.343.343,0,1,0,0,.686,1.716,1.716,0,1,0,0-3.432.343.343,0,1,0,0,.686Z" transform="translate(-17.193 -0.5)"/><path class="a" d="M31.343,1.186a1.029,1.029,0,1,1,0,2.059.343.343,0,1,0,0,.686,1.716,1.716,0,1,0,0-3.432.343.343,0,1,0,0,.686Z" transform="translate(-21.319 -0.5)"/><ellipse class="a" cx="0.343" cy="0.343" rx="0.343" ry="0.343" transform="translate(6.604 7.748)"/><ellipse class="a" cx="0.343" cy="0.343" rx="0.343" ry="0.343" transform="translate(8.806 7.748)"/><ellipse class="a" cx="0.343" cy="0.343" rx="0.343" ry="0.343" transform="translate(11.007 7.748)"/><ellipse class="a" cx="0.343" cy="0.343" rx="0.343" ry="0.343" transform="translate(13.209 7.748)"/><ellipse class="a" cx="0.343" cy="0.343" rx="0.343" ry="0.343" transform="translate(15.209 7.748)"/><ellipse class="a" cx="0.343" cy="0.343" rx="0.343" ry="0.343" transform="translate(2.402 10.444)"/><ellipse class="a" cx="0.343" cy="0.343" rx="0.343" ry="0.343" transform="translate(4.403 10.444)"/><ellipse class="a" cx="0.343" cy="0.343" rx="0.343" ry="0.343" transform="translate(6.604 10.444)"/><ellipse class="a" cx="0.343" cy="0.343" rx="0.343" ry="0.343" transform="translate(8.806 10.444)"/><ellipse class="a" cx="0.343" cy="0.343" rx="0.343" ry="0.343" transform="translate(11.007 10.444)"/><ellipse class="a" cx="0.343" cy="0.343" rx="0.343" ry="0.343" transform="translate(13.209 10.444)"/><ellipse class="a" cx="0.343" cy="0.343" rx="0.343" ry="0.343" transform="translate(15.209 10.444)"/><ellipse class="a" cx="0.343" cy="0.343" rx="0.343" ry="0.343" transform="translate(2.402 12.802)"/><ellipse class="a" cx="0.343" cy="0.343" rx="0.343" ry="0.343" transform="translate(4.403 12.802)"/><ellipse class="a" cx="0.343" cy="0.343" rx="0.343" ry="0.343" transform="translate(6.604 12.802)"/><ellipse class="a" cx="0.343" cy="0.343" rx="0.343" ry="0.343" transform="translate(8.806 12.802)"/><ellipse class="a" cx="0.343" cy="0.343" rx="0.343" ry="0.343" transform="translate(11.007 12.802)"/><ellipse class="a" cx="0.343" cy="0.343" rx="0.343" ry="0.343" transform="translate(13.209 12.802)"/><ellipse class="a" cx="0.343" cy="0.343" rx="0.343" ry="0.343" transform="translate(15.209 12.802)"/><ellipse class="a" cx="0.343" cy="0.343" rx="0.343" ry="0.343" transform="translate(2.402 15.441)"/><ellipse class="a" cx="0.343" cy="0.343" rx="0.343" ry="0.343" transform="translate(4.403 15.441)"/><ellipse class="a" cx="0.343" cy="0.343" rx="0.343" ry="0.343" transform="translate(6.604 15.441)"/><ellipse class="a" cx="0.343" cy="0.343" rx="0.343" ry="0.343" transform="translate(8.806 15.441)"/><ellipse class="a" cx="0.343" cy="0.343" rx="0.343" ry="0.343" transform="translate(11.007 15.441)"/></svg>